HIERARCHY
ROOT Hip
{
	OFFSET 0.000000 0.000000 0.000000 
	CHANNELS 6 Xposition Yposition Zposition Xrotation Yrotation Zrotation
	JOINT LowerSpine
	{
		OFFSET 0.000000 9.015400 -4.878700 
		CHANNELS 3 Xrotation Yrotation Zrotation
		JOINT MiddleSpine
		{
			OFFSET 0.000000 8.227200 0.429800 
			CHANNELS 3 Xrotation Yrotation Zrotation
			JOINT Chest
			{
				OFFSET 0.000000 10.180300 -2.266000 
				CHANNELS 3 Xrotation Yrotation Zrotation
				JOINT Neck
				{
					OFFSET -0.000100 29.121000 3.317500 
					CHANNELS 3 Xrotation Yrotation Zrotation
					JOINT Head
					{
						OFFSET 0.000000 9.353800 2.394300 
						CHANNELS 3 Xrotation Yrotation Zrotation
						End Site
						{
							OFFSET -0.000100 18.226500 -1.149700 
						}
					}
				}
				JOINT LClavicle
				{
					OFFSET 2.316100 22.139000 7.585000 
					CHANNELS 3 Xrotation Yrotation Zrotation
					JOINT LShoulder
					{
						OFFSET 13.530800 3.175600 -5.138400 
						CHANNELS 3 Xrotation Yrotation Zrotation
						JOINT LForearm
						{
							OFFSET 28.742001 -0.102000 -0.249000 
							CHANNELS 3 Xrotation Yrotation Zrotation
							JOINT LHand
							{
								OFFSET 23.976999 0.069500 -0.143600 
								CHANNELS 3 Xrotation Yrotation Zrotation
								JOINT LFinger1
								{
									OFFSET 9.292800 0.812700 2.581100 
									CHANNELS 3 Xrotation Yrotation Zrotation
									JOINT LFinger11
									{
										OFFSET 3.476000 -0.847600 0.612500 
										CHANNELS 3 Xrotation Yrotation Zrotation
										JOINT LFinger12
										{
											OFFSET 2.373000 -0.578800 0.418200 
											CHANNELS 3 Xrotation Yrotation Zrotation
											End Site
											{
												OFFSET 1.688600 -0.504100 0.273900 
											}
										}
									}
								}
								JOINT LFinger2
								{
									OFFSET 9.431500 0.938500 0.224700 
									CHANNELS 3 Xrotation Yrotation Zrotation
									JOINT LFinger21
									{
										OFFSET 4.297800 0.012000 -0.025400 
										CHANNELS 3 Xrotation Yrotation Zrotation
										JOINT LFinger22
										{
											OFFSET 2.382300 0.007300 -0.014500 
											CHANNELS 3 Xrotation Yrotation Zrotation
											End Site
											{
												OFFSET 2.139700 -0.151100 0.002900 
											}
										}
									}
								}
								JOINT LFinger3
								{
									OFFSET 8.938300 0.626400 -2.114600 
									CHANNELS 3 Xrotation Yrotation Zrotation
									JOINT LFinger31
									{
										OFFSET 3.899800 -0.197400 -0.244200 
										CHANNELS 3 Xrotation Yrotation Zrotation
										JOINT LFinger32
										{
											OFFSET 2.222300 -0.111800 -0.139600 
											CHANNELS 3 Xrotation Yrotation Zrotation
											End Site
											{
												OFFSET 1.964900 -0.241600 -0.092900 
											}
										}
									}
								}
								JOINT LFinger4
								{
									OFFSET 8.294400 -0.630300 -3.652000 
									CHANNELS 3 Xrotation Yrotation Zrotation
									JOINT LFinger41
									{
										OFFSET 2.398800 -0.500200 -0.662200 
										CHANNELS 3 Xrotation Yrotation Zrotation
										JOINT LFinger42
										{
											OFFSET 1.759100 -0.366300 -0.485900 
											CHANNELS 3 Xrotation Yrotation Zrotation
											End Site
											{
												OFFSET 1.561300 -0.429000 -0.358200 
											}
										}
									}
								}
								JOINT LFinger0
								{
									OFFSET 1.922400 -1.455000 1.457400 
									CHANNELS 3 Xrotation Yrotation Zrotation
									JOINT LFinger01
									{
										OFFSET 3.579100 -1.175400 2.698400 
										CHANNELS 3 Xrotation Yrotation Zrotation
										JOINT LFinger02
										{
											OFFSET 2.356800 -0.843300 1.698000 
											CHANNELS 3 Xrotation Yrotation Zrotation
											End Site
											{
												OFFSET 1.733100 -0.596600 1.186700 
											}
										}
									}
								}
							}
						}
					}
				}
				JOINT RClavicle
				{
					OFFSET -2.316100 22.139000 7.585000 
					CHANNELS 3 Xrotation Yrotation Zrotation
					JOINT RShoulder
					{
						OFFSET -13.533200 3.176200 -5.139300 
						CHANNELS 3 Xrotation Yrotation Zrotation
						JOINT RForearm
						{
							OFFSET -28.742001 -0.102000 -0.249000 
							CHANNELS 3 Xrotation Yrotation Zrotation
							JOINT RHand
							{
								OFFSET -23.976999 0.069600 -0.143600 
								CHANNELS 3 Xrotation Yrotation Zrotation
								JOINT RFinger1
								{
									OFFSET -9.292800 0.812800 2.581100 
									CHANNELS 3 Xrotation Yrotation Zrotation
									JOINT RFinger11
									{
										OFFSET -3.476000 -0.847600 0.612500 
										CHANNELS 3 Xrotation Yrotation Zrotation
										JOINT RFinger12
										{
											OFFSET -2.372900 -0.578900 0.418300 
											CHANNELS 3 Xrotation Yrotation Zrotation
											End Site
											{
												OFFSET -1.688600 -0.504100 0.273900 
											}
										}
									}
								}
								JOINT RFinger2
								{
									OFFSET -9.431500 0.938600 0.224700 
									CHANNELS 3 Xrotation Yrotation Zrotation
									JOINT RFinger21
									{
										OFFSET -4.297900 0.012000 -0.025400 
										CHANNELS 3 Xrotation Yrotation Zrotation
										JOINT RFinger22
										{
											OFFSET -2.382300 0.007300 -0.014600 
											CHANNELS 3 Xrotation Yrotation Zrotation
											End Site
											{
												OFFSET -2.139700 -0.151100 0.002900 
											}
										}
									}
								}
								JOINT RFinger3
								{
									OFFSET -8.938300 0.626400 -2.114700 
									CHANNELS 3 Xrotation Yrotation Zrotation
									JOINT RFinger31
									{
										OFFSET -3.899800 -0.197400 -0.244200 
										CHANNELS 3 Xrotation Yrotation Zrotation
										JOINT RFinger32
										{
											OFFSET -2.222300 -0.111800 -0.139600 
											CHANNELS 3 Xrotation Yrotation Zrotation
											End Site
											{
												OFFSET -1.964900 -0.241600 -0.092900 
											}
										}
									}
								}
								JOINT RFinger4
								{
									OFFSET -8.294400 -0.630300 -3.652000 
									CHANNELS 3 Xrotation Yrotation Zrotation
									JOINT RFinger41
									{
										OFFSET -2.398800 -0.500200 -0.662200 
										CHANNELS 3 Xrotation Yrotation Zrotation
										JOINT RFinger42
										{
											OFFSET -1.759000 -0.366200 -0.485900 
											CHANNELS 3 Xrotation Yrotation Zrotation
											End Site
											{
												OFFSET -1.561300 -0.429000 -0.358200 
											}
										}
									}
								}
								JOINT RFinger0
								{
									OFFSET -1.922400 -1.454900 1.457200 
									CHANNELS 3 Xrotation Yrotation Zrotation
									JOINT RFinger01
									{
										OFFSET -3.579100 -1.175600 2.698500 
										CHANNELS 3 Xrotation Yrotation Zrotation
										JOINT RFinger02
										{
											OFFSET -2.356700 -0.843200 1.697900 
											CHANNELS 3 Xrotation Yrotation Zrotation
											End Site
											{
												OFFSET -1.733100 -0.596600 1.186700 
											}
										}
									}
								}
							}
						}
					}
				}
			}
		}
	}
	JOINT RThigh
	{
		OFFSET -9.644200 4.075200 -0.795000 
		CHANNELS 3 Xrotation Yrotation Zrotation
		JOINT RShin
		{
			OFFSET -0.771700 -41.948101 0.000000 
			CHANNELS 3 Xrotation Yrotation Zrotation
			JOINT RFoot
			{
				OFFSET 0.000000 -41.190498 0.000000 
				CHANNELS 3 Xrotation Yrotation Zrotation
				JOINT RToe
				{
					OFFSET 0.000000 -4.527200 9.467000 
					CHANNELS 3 Xrotation Yrotation Zrotation
					End Site
					{
						OFFSET 0.000000 0.000000 6.351000 
					}
				}
			}
		}
	}
	JOINT LThigh
	{
		OFFSET 9.644100 4.075500 -0.795000 
		CHANNELS 3 Xrotation Yrotation Zrotation
		JOINT LShin
		{
			OFFSET 0.771800 -41.948399 0.000000 
			CHANNELS 3 Xrotation Yrotation Zrotation
			JOINT LFoot
			{
				OFFSET 0.000000 -41.190498 0.000000 
				CHANNELS 3 Xrotation Yrotation Zrotation
				JOINT LToe
				{
					OFFSET 0.000000 -4.527200 9.467000 
					CHANNELS 3 Xrotation Yrotation Zrotation
					End Site
					{
						OFFSET 0.000000 0.000000 6.351000 
					}
				}
			}
		}
	}
}
MOTION
Frames: 4
Frame Time: 0.033333
0.000000 84.806412 0.000000 3.625371 14.326879 -0.901413 0.000000 0.000000 0.000000 0.040484 -2.035861 -0.679401 0.040484 -2.035861 -0.679401 0.000000 0.000000 0.000000 0.000000 0.000000 0.000000 0.000000 0.000000 -13.528840 15.830964 -18.612076 -54.434422 0.232478 -26.627668 -0.255440 0.000000 0.000000 0.000000 0.000000 0.000000 0.000000 0.000000 0.000000 0.000000 0.000000 0.000000 0.000000 0.000000 0.000000 0.000000 0.000000 0.000000 0.000000 0.000000 0.000000 0.000000 0.000000 0.000000 0.000000 0.000000 0.000000 0.000000 0.000000 0.000000 0.000000 0.000000 0.000000 0.000000 0.000000 0.000000 0.000000 0.000000 0.000000 0.000000 0.000000 0.000000 0.000000 0.000000 0.000000 0.000000 0.000000 0.000000 0.000000 0.000000 0.000000 15.016584 14.586777 6.040569 61.491501 0.000000 36.760250 0.000000 0.000000 0.000000 0.000000 0.000000 0.000000 0.000000 0.000000 0.000000 0.000000 0.000000 0.000000 0.000000 0.000000 0.000000 0.000000 0.000000 0.000000 0.000000 0.000000 0.000000 0.000000 0.000000 0.000000 0.000000 0.000000 0.000000 0.000000 0.000000 0.000000 0.000000 0.000000 0.000000 0.000000 0.000000 0.000000 0.000000 0.000000 0.000000 0.000000 0.000000 0.000000 0.000000 0.000000 0.000000 0.000000 0.000000 0.000000 0.000000 -11.121091 -15.778659 0.077528 17.407364 0.000002 0.000000 -12.016653 -5.011890 -3.100875 -0.000004 0.000000 0.000000 -12.282287 11.044661 4.909431 13.166067 0.000001 0.000000 -8.253715 3.719779 2.068544 -0.000003 0.000000 0.000000 
-0.392780 84.611649 -0.046996 4.358109 14.738865 -1.840867 0.000000 0.000000 0.000000 0.010141 -2.270850 -0.163342 0.010141 -2.270850 -0.163342 0.000000 0.000000 0.000000 0.000000 0.000000 0.000000 0.000000 0.000000 -13.579803 15.725304 -18.512440 -54.611652 0.237032 -28.468086 -0.246475 0.000000 0.000000 0.000000 0.000000 0.000000 0.000000 0.000000 0.000000 0.000000 0.000000 0.000000 0.000000 0.000000 0.000000 0.000000 0.000000 0.000000 0.000000 0.000000 0.000000 0.000000 0.000000 0.000000 0.000000 0.000000 0.000000 0.000000 0.000000 0.000000 0.000000 0.000000 0.000000 0.000000 0.000000 0.000000 0.000000 0.000000 0.000000 0.000000 0.000000 0.000000 0.000000 0.000000 0.000000 0.000000 0.000000 0.000000 0.000000 0.000000 0.000000 15.028274 14.900558 5.900386 61.575134 0.000000 38.195053 0.000000 0.000000 0.000000 0.000000 0.000000 0.000000 0.000000 0.000000 0.000000 0.000000 0.000000 0.000000 0.000000 0.000000 0.000000 0.000000 0.000000 0.000000 0.000000 0.000000 0.000000 0.000000 0.000000 0.000000 0.000000 0.000000 0.000000 0.000000 0.000000 0.000000 0.000000 0.000000 0.000000 0.000000 0.000000 0.000000 0.000000 0.000000 0.000000 0.000000 0.000000 0.000000 0.000000 0.000000 0.000000 0.000000 0.000000 0.000000 0.000000 -11.857587 -16.018621 1.113119 18.295776 0.000002 0.000000 -12.591635 -4.903671 -3.060051 -0.000004 0.000000 0.000000 -13.970358 10.996378 6.455634 17.478590 0.000001 0.000000 -10.173523 2.123846 1.186519 -0.000003 0.000000 0.000000 
-0.748260 84.330681 -0.077892 4.977113 15.023943 -2.615821 0.000000 0.000000 0.000000 0.017804 -2.418417 0.319789 0.017804 -2.418417 0.319789 0.000000 0.000000 0.000000 0.000000 0.000000 0.000000 0.000000 0.000000 -13.650458 15.701914 -18.225965 -54.645264 0.242090 -30.401428 -0.236828 0.000000 0.000000 0.000000 0.000000 0.000000 0.000000 0.000000 0.000000 0.000000 0.000000 0.000000 0.000000 0.000000 0.000000 0.000000 0.000000 0.000000 0.000000 0.000000 0.000000 0.000000 0.000000 0.000000 0.000000 0.000000 0.000000 0.000000 0.000000 0.000000 0.000000 0.000000 0.000000 0.000000 0.000000 0.000000 0.000000 0.000000 0.000000 0.000000 0.000000 0.000000 0.000000 0.000000 0.000000 0.000000 0.000000 0.000000 0.000000 0.000000 0.000000 15.037144 15.000750 5.258460 61.832069 0.000000 39.423992 0.000000 0.000000 0.000000 0.000000 0.000000 0.000000 0.000000 0.000000 0.000000 0.000000 0.000000 0.000000 0.000000 0.000000 0.000000 0.000000 0.000000 0.000000 0.000000 0.000000 0.000000 0.000000 0.000000 0.000000 0.000000 0.000000 0.000000 0.000000 0.000000 0.000000 0.000000 0.000000 0.000000 0.000000 0.000000 0.000000 0.000000 0.000000 0.000000 0.000000 0.000000 0.000000 0.000000 0.000000 0.000000 0.000000 0.000000 0.000000 0.000000 -13.366708 -16.229074 1.758745 20.690163 0.000002 0.000000 -13.091787 -4.628300 -2.901697 -0.000004 0.000000 0.000000 -15.383698 11.027843 7.575612 21.437361 0.000002 0.000000 -12.721193 -0.496558 -0.493062 -0.000003 0.000000 0.000000 
-1.014341 83.825912 -0.238289 5.596383 15.018589 -3.105633 0.000000 0.000000 0.000000 0.056646 -2.473722 0.747874 0.056646 -2.473722 0.747874 0.000000 0.000000 0.000000 0.000000 0.000000 0.000000 0.000000 0.000000 -13.718292 15.739763 -17.889439 -54.662056 0.247795 -32.449356 -0.226316 0.000000 0.000000 0.000000 0.000000 0.000000 0.000000 0.000000 0.000000 0.000000 0.000000 0.000000 0.000000 0.000000 0.000000 0.000000 0.000000 0.000000 0.000000 0.000000 0.000000 0.000000 0.000000 0.000000 0.000000 0.000000 0.000000 0.000000 0.000000 0.000000 0.000000 0.000000 0.000000 0.000000 0.000000 0.000000 0.000000 0.000000 0.000000 0.000000 0.000000 0.000000 0.000000 0.000000 0.000000 0.000000 0.000000 0.000000 0.000000 0.000000 0.000000 14.993083 14.996830 4.756484 62.148403 0.000000 40.243317 0.000000 0.000000 0.000000 0.000000 0.000000 0.000000 0.000000 0.000000 0.000000 0.000000 0.000000 0.000000 0.000000 0.000000 0.000000 0.000000 0.000000 0.000000 0.000000 0.000000 0.000000 0.000000 0.000000 0.000000 0.000000 0.000000 0.000000 0.000000 0.000000 0.000000 0.000000 0.000000 0.000000 0.000000 0.000000 0.000000 0.000000 0.000000 0.000000 0.000000 0.000000 0.000000 0.000000 0.000000 0.000000 0.000000 0.000000 0.000000 0.000000 -15.861082 -16.433899 1.819922 24.736046 0.000003 0.000000 -13.951279 -4.136985 -2.609561 -0.000004 0.000000 0.000000 -16.853977 11.122150 8.200388 25.349571 0.000002 0.000000 -15.742292 -2.025919 -1.576621 -0.000003 0.000000 0.000000 
